<?xml version="1.0" standalone="no"?><!DOCTYPE svg PUBLIC "-//W3C//DTD SVG 1.1//EN" "http://www.w3.org/Graphics/SVG/1.1/DTD/svg11.dtd"><svg t="1676889200072" class="icon" viewBox="0 0 1024 1024" version="1.1" xmlns="http://www.w3.org/2000/svg" p-id="3158" xmlns:xlink="http://www.w3.org/1999/xlink" width="200" height="200"><path d="M512 149.333333A362.666667 362.666667 0 1 1 149.333333 512 363.093333 363.093333 0 0 1 512 149.333333M512 85.333333a426.666667 426.666667 0 1 0 426.666667 426.666667A426.666667 426.666667 0 0 0 512 85.333333z" fill="#5ac725" p-id="3159"></path><path d="M469.333333 672a31.573333 31.573333 0 0 1-22.613333-9.386667l-128-128a32 32 0 0 1 45.226667-45.226666L469.333333 594.773333l213.333334-213.333333A32 32 0 0 1 725.333333 426.666667l-234.666666 234.666666a31.573333 31.573333 0 0 1-21.333334 10.666667z" fill="#5ac725" p-id="3160"></path></svg>