<svg t="1673838094103" class="icon" viewBox="0 0 1024 1024" version="1.1" xmlns="http://www.w3.org/2000/svg" p-id="3715" width="25" height="25"><path d="M727.89 256.31H296.11c-13.81 0-25-11.19-25-25s11.19-25 25-25h431.77c13.81 0 25 11.19 25 25s-11.19 25-24.99 25zM727.89 817.69H296.11c-13.81 0-25-11.19-25-25s11.19-25 25-25h431.77c13.81 0 25 11.19 25 25s-11.19 25-24.99 25z" fill="#2a98eb" p-id="3716"></path><path d="M336.68 799.06c-13.48 0-24.59-10.73-24.98-24.29-1.48-52.23 8.65-96.49 30.96-135.3 22.55-39.23 54.64-67.3 80.08-87.38 20.17-15.92 20.79-23.8 20.71-25.22-0.06-1.04-1.36-10.6-28.56-27.48-111.51-69.21-103.55-230.53-103.16-237.36 0.79-13.78 12.62-24.33 26.4-23.52 13.77 0.79 24.3 12.59 23.52 26.36-0.09 1.73-6.39 138.66 79.61 192.04 21.5 13.34 50.28 34.82 52.11 67.15 1.94 34.44-29.36 59.16-39.65 67.28-58.7 46.34-94.57 92.95-92.04 182.02 0.39 13.8-10.48 25.31-24.28 25.7h-0.72zM687.32 799.06c-0.24 0-0.48 0-0.72-0.01-13.8-0.39-24.67-11.9-24.28-25.7 2.53-89.07-33.34-135.68-92.04-182.02-10.29-8.12-41.59-32.84-39.65-67.28 1.83-32.33 30.61-53.8 52.11-67.15 86.11-53.45 79.68-190.67 79.61-192.04-0.75-13.77 9.8-25.57 23.57-26.34 13.79-0.76 25.56 9.74 26.35 23.5 0.39 6.83 8.35 168.15-103.16 237.36-27.2 16.88-28.5 26.45-28.56 27.48-0.08 1.42 0.54 9.29 20.71 25.22 25.43 20.08 57.52 48.16 80.08 87.38 22.32 38.81 32.44 83.07 30.96 135.3-0.39 13.57-11.51 24.3-24.98 24.3zM562.02 713.87H461.98c-13.81 0-25-11.19-25-25s11.19-25 25-25h100.04c13.81 0 25 11.19 25 25s-11.19 25-25 25z" fill="#2a98eb" p-id="3717"></path><path d="M562.02 439.51H461.98c-13.81 0-25-11.19-25-25s11.19-25 25-25h100.04c13.81 0 25 11.19 25 25s-11.19 25-25 25z" fill="#2a98eb" p-id="3718"></path></svg>